<svg width="94" height="107" viewBox="0 0 94 107" fill="none" xmlns="http://www.w3.org/2000/svg">
<path fill-rule="evenodd" clip-rule="evenodd" d="M43.633 44.5503C43.7115 45.0138 43.8684 45.4764 44.0253 45.9382C44.7314 48.4308 45.5162 51.3378 46.9284 53.4839C48.8115 56.2981 50.9297 57.3859 53.0481 57.3618C56.0295 57.3251 59.0891 54.8218 60.9722 51.3914C62.8552 47.9923 63.6401 43.7358 62.4632 40.3072C61.6786 37.9574 59.9525 35.9524 56.971 34.8593C53.5973 33.5982 50.3805 34.6297 47.556 36.8527C46.4575 37.6868 45.5162 38.6907 44.5747 39.7963C44.3393 38.3415 44.1036 36.8723 43.8682 35.3826C43.2406 30.5054 43.0835 25.3791 43.3189 20.4625C43.5542 13.959 44.7316 7.73767 46.9284 1.72712C47.0854 1.17162 46.8498 0.535728 46.3791 0.307098C45.9083 0.079361 45.3594 0.343735 45.124 0.899246C42.8487 7.14646 41.5928 13.6125 41.3574 20.3714C41.2005 25.4308 41.2795 30.7055 41.9857 35.7247C42.2995 37.8038 42.6132 39.8446 43.0055 41.8621C41.2009 44.5092 39.7885 47.4502 38.9255 49.9508C33.4333 66.6794 40.5728 89.206 47.6341 104.365C47.8695 104.895 48.4192 105.097 48.8899 104.817C49.3607 104.535 49.5176 103.877 49.2822 103.346C42.4563 88.6747 35.3947 66.9099 40.7299 50.7189C41.3575 48.8148 42.3777 46.6294 43.633 44.5503ZM45.124 42.3854C45.281 43.341 45.5159 44.2904 45.8297 45.2371C46.5358 47.5216 47.1634 50.2063 48.4187 52.172C49.831 54.2966 51.4008 55.2049 52.9699 55.1871C55.4806 55.1576 57.8341 53.0052 59.3248 50.2304C60.894 47.4252 61.6787 43.9296 60.6588 41.0994C60.0311 39.2774 58.697 37.7744 56.4217 36.9268C53.5972 35.8881 50.93 36.8098 48.6547 38.6415C47.3209 39.6606 46.144 40.9591 45.124 42.3854Z" fill="white"/>
<path fill-rule="evenodd" clip-rule="evenodd" d="M48.5744 104.53C48.1821 104.215 47.7898 103.744 47.3975 103.271C46.6129 102.363 45.9066 101.4 45.2789 100.893C41.5129 97.7688 36.9624 94.0758 32.4903 92.4378C32.0195 92.253 31.4703 92.5665 31.3134 93.1381C31.1565 93.7087 31.3917 94.3223 31.9409 94.5072C36.1777 96.079 40.4934 99.6559 44.181 102.654C44.8086 103.202 45.6712 104.363 46.4558 105.294C47.162 106.084 47.8682 106.713 48.5744 106.942C48.9667 107.103 49.6728 106.924 50.1436 105.918C50.7712 104.493 51.3209 100.535 51.3994 100.152C52.184 96.2702 52.9684 92.8549 55.9498 90.4043C56.3421 90.0515 56.4204 89.3701 56.1851 88.8851C55.8712 88.4002 55.2434 88.293 54.8511 88.6467C51.4774 91.4403 50.3791 95.2654 49.516 99.6898C49.516 99.972 49.2022 102.338 48.7314 103.982C48.653 104.16 48.6528 104.355 48.5744 104.53Z" fill="white"/>
</svg>
