<svg width="335" height="67" viewBox="0 0 335 67" fill="none" xmlns="http://www.w3.org/2000/svg">
<circle cx="23.5" cy="33.5" r="23.5" fill="white"/>
<rect x="10.0677" y="35.7827" width="22.206" height="3.70099" rx="1.8505" transform="rotate(-45 10.0677 35.7827)" fill="#F4ABC4"/>
<rect x="18.6785" y="44.3672" width="17.0246" height="3.70099" rx="1.8505" transform="rotate(-45 18.6785 44.3672)" fill="#F4ABC4"/>
<rect x="31.7633" y="31.2822" width="3.70099" height="3.70099" rx="1.8505" transform="rotate(-45 31.7633 31.2822)" fill="#F4ABC4"/>
<rect x="14.3866" y="40.0752" width="6.66179" height="3.70099" rx="1.8505" transform="rotate(-45 14.3866 40.0752)" fill="#F4ABC4"/>
<rect x="20.1439" y="34.3174" width="14.0638" height="3.70099" rx="1.8505" transform="rotate(-45 20.1439 34.3174)" fill="#F4ABC4"/>
<path d="M71.4643 52V15.768H92.3523C97.2057 15.768 100.883 16.5893 103.384 18.232C105.923 19.8373 107.192 22.2453 107.192 25.456C107.192 27.5093 106.688 29.1333 105.68 30.328C104.672 31.4853 103.235 32.344 101.368 32.904C99.539 33.464 97.3737 33.8187 94.8723 33.968L95.0963 33.576C96.9257 33.6133 98.643 33.744 100.248 33.968C101.891 34.192 103.328 34.6027 104.56 35.2C105.792 35.7973 106.763 36.6373 107.472 37.72C108.182 38.7653 108.536 40.1467 108.536 41.864C108.536 44.104 107.939 45.9707 106.744 47.464C105.55 48.92 103.888 50.0213 101.76 50.768C99.6323 51.5147 97.1683 51.9253 94.3683 52H71.4643ZM78.9123 45.84H93.5843C95.9363 45.84 97.747 45.4667 99.0163 44.72C100.286 43.936 100.92 42.704 100.92 41.024C100.92 39.792 100.547 38.896 99.8003 38.336C99.0537 37.776 98.0643 37.44 96.8323 37.328C95.6003 37.1787 94.275 37.104 92.8563 37.104H78.9123V45.84ZM78.9123 31.112H92.0723C94.4243 31.112 96.235 30.776 97.5043 30.104C98.7737 29.3947 99.4083 28.2 99.4083 26.52C99.4083 24.84 98.7737 23.664 97.5043 22.992C96.235 22.2827 94.555 21.928 92.4643 21.928H78.9123V31.112ZM150.458 15.768L134.554 40.576V52H127.05V40.576L111.146 15.768H119.77L133.154 37.44H128.674L141.834 15.768H150.458ZM162.287 40.24V34.304H178.863C180.842 34.304 182.41 33.7813 183.567 32.736C184.724 31.6533 185.303 30.16 185.303 28.256C185.303 26.2773 184.724 24.7653 183.567 23.72C182.41 22.6747 180.842 22.152 178.863 22.152H163.183V52H155.735V15.768H178.191C180.207 15.768 182.092 16.0107 183.847 16.496C185.639 16.9813 187.188 17.728 188.495 18.736C189.839 19.744 190.884 21.032 191.631 22.6C192.378 24.168 192.751 26.0533 192.751 28.256C192.751 30.4213 192.378 32.2693 191.631 33.8C190.884 35.3307 189.839 36.5813 188.495 37.552C187.188 38.4853 185.639 39.176 183.847 39.624C182.092 40.0347 180.207 40.24 178.191 40.24H162.287ZM206.313 30.72H235.041V36.936H206.313V30.72ZM233.809 15.768H241.257V52H233.809V15.768ZM199.761 15.768H207.209V52H199.761V15.768ZM257.303 36.88V45.784H285.247V52H249.855V15.768H285.191V21.984H257.303V31H280.151V36.88H257.303ZM292.894 52V15.768H317.478C320.278 15.768 322.705 16.16 324.758 16.944C326.849 17.6907 328.473 18.8853 329.63 20.528C330.787 22.1333 331.366 24.2053 331.366 26.744C331.366 28.4613 331.067 29.9173 330.47 31.112C329.873 32.3067 329.033 33.2773 327.95 34.024C326.905 34.7707 325.691 35.3493 324.31 35.76C322.929 36.1333 321.454 36.376 319.886 36.488L319.102 36.04C321.715 36.0773 323.862 36.3013 325.542 36.712C327.222 37.0853 328.473 37.7947 329.294 38.84C330.153 39.848 330.582 41.36 330.582 43.376V52H323.134V43.88C323.134 42.4987 322.891 41.4347 322.406 40.688C321.921 39.904 321.043 39.3627 319.774 39.064C318.542 38.7653 316.75 38.616 314.398 38.616H300.342V52H292.894ZM300.342 32.792H317.478C319.569 32.792 321.155 32.288 322.238 31.28C323.358 30.272 323.918 28.9093 323.918 27.192C323.918 25.5493 323.358 24.2987 322.238 23.44C321.155 22.5813 319.569 22.152 317.478 22.152H300.342V32.792Z" fill="white"/>
</svg>
