<svg width="47" height="52" viewBox="0 0 47 52" fill="none" xmlns="http://www.w3.org/2000/svg">
<path fill-rule="evenodd" clip-rule="evenodd" d="M15.7256 48.5261C11.2377 47.2543 6.53913 46.6128 1.98119 46.025C0.999479 45.9018 0.0880276 46.5894 0.0179054 47.5581C-0.122339 48.5275 0.579294 49.4141 1.49088 49.5373C5.90858 50.1031 10.4661 50.7085 14.7436 51.9329C15.6552 52.1984 16.6373 51.6518 16.9178 50.7114C17.1983 49.7717 16.6371 48.7924 15.7256 48.5261Z" fill="white"/>
<path fill-rule="evenodd" clip-rule="evenodd" d="M29.3287 30.4951C22.1061 23.052 13.9719 16.567 6.88959 8.92423C6.25849 8.21044 5.13653 8.1722 4.43531 8.83854C3.73409 9.5056 3.66424 10.6273 4.36546 11.3411C11.4478 19.0058 19.582 25.512 26.8046 32.9771C27.5058 33.6739 28.6275 33.6838 29.3287 32.9983C29.9598 32.3136 30.0299 31.1919 29.3287 30.4951Z" fill="white"/>
<path fill-rule="evenodd" clip-rule="evenodd" d="M42.8632 1.86645C43.0736 6.12652 43.2835 10.3866 43.4939 14.6474C43.4939 15.6232 44.3358 16.3766 45.3175 16.3292C46.2992 16.281 47 15.4504 47 14.4739C46.7896 10.2067 46.5797 5.94028 46.3693 1.67383C46.2992 0.698039 45.4576 -0.050449 44.4759 0.0026603C43.5643 0.0557696 42.7931 0.891359 42.8632 1.86645Z" fill="white"/>
</svg>
