<svg width="58" height="58" viewBox="0 0 58 58" fill="none" xmlns="http://www.w3.org/2000/svg">
<g clip-path="url(#clip0_107_179)">
<path fill-rule="evenodd" clip-rule="evenodd" d="M14.3214 35.0687C15.5608 33.5152 16.7678 31.7236 17.3824 29.8322C18.1124 27.5858 17.7013 25.5304 17.0309 23.5143C16.1692 20.9243 14.8934 18.3872 14.1438 15.7227C13.8647 14.7336 14.1325 14.1283 14.2445 13.8639C14.5278 13.1958 14.9781 12.7849 15.4793 12.5235C16.0726 12.2125 16.9858 11.9437 18.089 12.5775C18.2466 12.6684 18.4704 12.817 18.7107 13.0617C18.8866 13.2412 19.3211 13.8744 19.5371 14.1126C20.0711 14.6981 20.5849 15.296 21.0946 15.9016C22.7911 17.9169 24.1436 19.6835 26.4252 21.0867C29.522 22.992 31.9565 23.8231 34.3008 23.4062C36.5676 23.0032 38.6565 21.5193 41.0813 19.2296C41.3058 19.0017 41.5333 18.7847 41.7643 18.5795C42.8559 17.6063 44.5247 17.6843 45.5215 18.7549C46.5178 19.8246 46.4762 21.4949 45.4289 22.5151C45.2103 22.728 44.9935 22.9358 44.7767 23.1373C41.6002 26.3932 39.312 32.4024 38.5877 36.8709C38.3646 38.2485 38.7772 41.4575 38.605 43.7746C38.4776 45.4841 37.9952 46.858 37.3561 47.6341C36.9284 48.155 36.4537 48.4102 36.0183 48.5511C35.3857 48.7559 34.7461 48.7411 34.1037 48.4849C33.7531 48.3441 33.3617 48.107 33.0031 47.7166C32.8308 47.5285 32.4906 46.9901 32.3396 46.7445C31.5976 46.0766 30.8144 45.4609 30.0935 44.7698C28.3735 43.121 26.6151 42.4922 24.424 41.5798C22.3739 40.7256 20.5962 40.4923 18.3898 40.7946C18.1309 40.8792 16.0403 41.5603 15.2412 41.7027C14.073 41.9093 13.2384 41.5596 12.8673 41.3226C12.2372 40.9209 11.8987 40.4383 11.695 39.9874C11.3948 39.3215 11.3444 38.6237 11.5708 37.8946C11.7105 37.4421 12.0047 36.9039 12.5342 36.4022C12.9426 36.0135 14.1518 35.1852 14.3214 35.0687ZM22.9868 25.2696C23.1871 25.4049 23.3936 25.5377 23.6066 25.6689C28.1422 28.4594 31.809 29.3138 35.2428 28.7023L35.3573 28.6807C34.3631 31.191 33.6433 33.754 33.2775 36.0101C33.1269 36.939 33.2094 38.6235 33.2559 40.3745C31.1988 38.5802 29.1115 37.7047 26.4927 36.6132C24.493 35.7809 22.6716 35.3507 20.7226 35.2883C21.4526 34.0748 22.0748 32.7978 22.4984 31.4945C23.2034 29.3243 23.2834 27.2668 22.9868 25.2696Z" fill="white"/>
</g>
<defs>
<clipPath id="clip0_107_179">
<rect width="41.959" height="41.959" fill="white" transform="translate(0 22.1123) rotate(-31.8026)"/>
</clipPath>
</defs>
</svg>
