<svg width="37" height="37" viewBox="0 0 37 37" fill="none" xmlns="http://www.w3.org/2000/svg">
<g clip-path="url(#clip0_107_187)">
<path fill-rule="evenodd" clip-rule="evenodd" d="M11.9215 10.7503C13.0576 11.1972 14.3277 11.5821 15.5492 11.6011C17.0001 11.6236 18.1326 11.0107 19.1951 10.2527C20.56 9.27866 21.819 8.07104 23.2479 7.14929C23.7782 6.80666 24.182 6.85447 24.3575 6.87244C24.8009 6.91799 25.1235 7.10811 25.3676 7.35514C25.6574 7.64729 25.9803 8.13487 25.8076 8.89712C25.7827 9.0061 25.7359 9.16434 25.6357 9.34967C25.5621 9.48541 25.2688 9.85492 25.168 10.0248C24.9208 10.4441 24.6626 10.8539 24.3992 11.2626C23.5226 12.623 22.7299 13.7363 22.3184 15.3295C21.7595 17.4921 21.7116 19.0717 22.3801 20.3727C23.0264 21.6308 24.2752 22.589 26.0578 23.5988C26.2322 23.6895 26.4007 23.7838 26.563 23.8823C27.3317 24.3473 27.5875 25.3412 27.1391 26.12C26.6911 26.8982 25.703 27.1757 24.9147 26.7453C24.7502 26.6554 24.589 26.5657 24.4315 26.4748C21.9457 25.1983 18.004 24.941 15.2495 25.3234C14.4004 25.4415 12.5908 26.2637 11.1993 26.5814C10.1726 26.8156 9.27875 26.7807 8.70757 26.5458C8.32443 26.3888 8.08881 26.1562 7.92738 25.926C7.69277 25.5917 7.58588 25.2135 7.62015 24.79C7.63946 24.5587 7.70791 24.286 7.87231 24.005C7.95159 23.8698 8.20623 23.5727 8.32314 23.4397C8.58113 22.8833 8.80111 22.3122 9.07652 21.764C9.73373 20.4561 9.78507 19.3101 9.92467 17.8587C10.0557 16.5006 9.87131 15.4148 9.29503 14.174C9.19854 14.0372 8.4208 12.9329 8.19278 12.4895C7.86032 11.8409 7.91474 11.2877 7.98685 11.027C8.10881 10.5844 8.33096 10.2985 8.55891 10.0974C8.89557 9.8008 9.2962 9.64504 9.76519 9.64621C10.0561 9.64645 10.4253 9.7219 10.8155 9.94206C11.1176 10.1116 11.8225 10.6718 11.9215 10.7503ZM19.2411 14.0668C19.1978 14.2089 19.1572 14.3541 19.1186 14.5029C18.3001 17.6703 18.4612 19.9775 19.4409 21.8831L19.4743 21.9464C17.8207 21.8164 16.1858 21.8571 14.7951 22.0501C14.2225 22.1296 13.2484 22.4825 12.2287 22.8263C12.9104 21.2942 13.0471 19.9105 13.2146 18.1756C13.3418 16.8511 13.2652 15.704 12.9496 14.5484C13.794 14.7576 14.6562 14.8921 15.498 14.9052C16.8996 14.9269 18.122 14.602 19.2411 14.0668Z" fill="white"/>
</g>
<defs>
<clipPath id="clip0_107_187">
<rect width="25.7761" height="25.7761" fill="white" transform="translate(16.9399) rotate(41.086)"/>
</clipPath>
</defs>
</svg>
